<svg width="459" height="354" viewBox="0 0 459 354" fill="none" xmlns="http://www.w3.org/2000/svg">
<path fill-rule="evenodd" clip-rule="evenodd" d="M2.74589 -238.125C6.45305 -273.276 13.6302 -308.131 24.2774 -342.134L374.866 -692.723C408.869 -703.37 443.724 -710.547 478.875 -714.254L2.74589 -238.125ZM167.745 207.888C182.089 221.441 196.998 234.05 212.394 245.717L962.717 -504.606C951.05 -520.002 938.441 -534.911 924.888 -549.255L167.745 207.888ZM321.784 309.7C303.114 301.59 284.812 292.366 266.979 282.027L999.027 -450.021C1009.37 -432.188 1018.59 -413.886 1026.7 -395.216L321.784 309.7ZM388.76 333.618C411.114 339.958 433.8 344.816 456.662 348.194L1065.19 -260.338C1061.82 -283.2 1056.96 -305.886 1050.62 -328.24L388.76 333.618ZM633.215 345.015C603.014 350.597 572.427 353.572 541.814 353.937L1070.94 -175.186C1070.57 -144.573 1067.6 -113.986 1062.01 -83.7854L633.215 345.015ZM768.272 300.852C820.978 275.408 870.379 240.825 914.102 197.102C957.825 153.379 992.408 103.978 1017.85 51.2719L768.272 300.852ZM878.045 -593.306L123.694 161.045C110.977 145.803 99.239 130.021 88.4798 113.781L830.781 -628.52C847.021 -617.761 862.803 -606.023 878.045 -593.306ZM55.2624 56.104L773.104 -661.738C754.193 -671.104 734.844 -679.285 715.167 -686.279L30.7207 -1.8326C37.7155 17.8438 45.896 37.193 55.2624 56.104ZM10.8703 -72.8765C5.92029 -96.863 2.62664 -121.123 0.989353 -145.474L571.526 -716.011C595.877 -714.373 620.137 -711.08 644.123 -706.13L10.8703 -72.8765Z" fill="#8D002E"/>
</svg>
